<svg width="206" height="221" viewBox="0 0 206 221" fill="none" xmlns="http://www.w3.org/2000/svg">
<path opacity="0.6" fill-rule="evenodd" clip-rule="evenodd" d="M187.387 225.314C192.047 329.701 133.378 453.773 106.957 482.304C82.4989 508.725 8.25553 464.211 -14.6566 387.924C-38.4443 308.749 -26.5702 80.6221 3.30903 26.9134C54.4428 -64.9488 182.606 118.191 187.387 225.314Z" fill="#5B86E5"/>
<path opacity="0.6" fill-rule="evenodd" clip-rule="evenodd" d="M174.258 265.572C180.11 382.147 134.997 509.205 106.391 529.408C69.8676 555.2 4.23158 481.853 -9.67196 404.817C-34.8321 265.43 29.9031 68.5903 64.0699 53.4548C95.9365 39.3385 167.345 127.76 174.258 265.572Z" fill="#5B86E5"/>
<path opacity="0.6" fill-rule="evenodd" clip-rule="evenodd" d="M72.0597 377.916C55.1146 338.251 51.2193 213.743 57.1063 169.235C65.2958 107.318 114.69 30.2935 138.512 38.6976C163.027 47.3701 206.664 175.312 204.584 235.497C202.1 307.066 159.432 367.336 147.898 379.134C134.764 392.571 90.537 421.198 72.0597 377.916Z" fill="#5B86E5"/>
</svg>
