<svg width="1441" height="324" viewBox="0 0 1441 324" fill="none" xmlns="http://www.w3.org/2000/svg">
<g filter="url(#filter0_i_34_739)">
<path fill-rule="evenodd" clip-rule="evenodd" d="M0.5 0L8.9 24C18.5 48 36.5 96 53.3 150C71.3 204 89.3 264 107.3 234C125.3 204 143.3 84 160.1 60C178.1 36 196.1 108 214.1 132C232.1 156 248.9 132 266.9 144C284.9 156 302.9 204 320.9 210C337.7 216 355.7 180 373.7 174C391.7 168 409.7 192 427.7 192C444.5 192 462.5 168 480.5 168C498.5 168 516.5 192 533.3 192C551.3 192 569.3 168 587.3 138C605.3 108 623.3 72 640.1 54C658.1 36 676.1 36 694.1 72C712.1 108 728.9 180 746.9 174C764.9 168 782.9 84 800.9 60C817.7 36 835.7 72 853.7 102C871.7 132 889.7 156 907.7 180C924.5 204 942.5 228 960.5 246C978.5 264 996.5 276 1013.3 282C1031.3 288 1049.3 288 1067.3 282C1085.3 276 1103.3 264 1120.1 258C1138.1 252 1156.1 252 1174.1 246C1192.1 240 1208.9 228 1226.9 186C1244.9 144 1262.9 72 1280.9 78C1297.7 84 1315.7 168 1333.7 198C1351.7 228 1369.7 204 1387.7 192C1404.5 180 1422.5 180 1432.1 180H1440.5V324H1432.1C1422.5 324 1404.5 324 1387.7 324C1369.7 324 1351.7 324 1333.7 324C1315.7 324 1297.7 324 1280.9 324C1262.9 324 1244.9 324 1226.9 324C1208.9 324 1192.1 324 1174.1 324C1156.1 324 1138.1 324 1120.1 324C1103.3 324 1085.3 324 1067.3 324C1049.3 324 1031.3 324 1013.3 324C996.5 324 978.5 324 960.5 324C942.5 324 924.5 324 907.7 324C889.7 324 871.7 324 853.7 324C835.7 324 817.7 324 800.9 324C782.9 324 764.9 324 746.9 324C728.9 324 712.1 324 694.1 324C676.1 324 658.1 324 640.1 324C623.3 324 605.3 324 587.3 324C569.3 324 551.3 324 533.3 324C516.5 324 498.5 324 480.5 324C462.5 324 444.5 324 427.7 324C409.7 324 391.7 324 373.7 324C355.7 324 337.7 324 320.9 324C302.9 324 284.9 324 266.9 324C248.9 324 232.1 324 214.1 324C196.1 324 178.1 324 160.1 324C143.3 324 125.3 324 107.3 324C89.3 324 71.3 324 53.3 324C36.5 324 18.5 324 8.9 324H0.5V0Z" fill="url(#paint0_linear_34_739)"/>
<path fill-rule="evenodd" clip-rule="evenodd" d="M0.5 0L8.9 24C18.5 48 36.5 96 53.3 150C71.3 204 89.3 264 107.3 234C125.3 204 143.3 84 160.1 60C178.1 36 196.1 108 214.1 132C232.1 156 248.9 132 266.9 144C284.9 156 302.9 204 320.9 210C337.7 216 355.7 180 373.7 174C391.7 168 409.7 192 427.7 192C444.5 192 462.5 168 480.5 168C498.5 168 516.5 192 533.3 192C551.3 192 569.3 168 587.3 138C605.3 108 623.3 72 640.1 54C658.1 36 676.1 36 694.1 72C712.1 108 728.9 180 746.9 174C764.9 168 782.9 84 800.9 60C817.7 36 835.7 72 853.7 102C871.7 132 889.7 156 907.7 180C924.5 204 942.5 228 960.5 246C978.5 264 996.5 276 1013.3 282C1031.3 288 1049.3 288 1067.3 282C1085.3 276 1103.3 264 1120.1 258C1138.1 252 1156.1 252 1174.1 246C1192.1 240 1208.9 228 1226.9 186C1244.9 144 1262.9 72 1280.9 78C1297.7 84 1315.7 168 1333.7 198C1351.7 228 1369.7 204 1387.7 192C1404.5 180 1422.5 180 1432.1 180H1440.5V324H1432.1C1422.5 324 1404.5 324 1387.7 324C1369.7 324 1351.7 324 1333.7 324C1315.7 324 1297.7 324 1280.9 324C1262.9 324 1244.9 324 1226.9 324C1208.9 324 1192.1 324 1174.1 324C1156.1 324 1138.1 324 1120.1 324C1103.3 324 1085.3 324 1067.3 324C1049.3 324 1031.3 324 1013.3 324C996.5 324 978.5 324 960.5 324C942.5 324 924.5 324 907.7 324C889.7 324 871.7 324 853.7 324C835.7 324 817.7 324 800.9 324C782.9 324 764.9 324 746.9 324C728.9 324 712.1 324 694.1 324C676.1 324 658.1 324 640.1 324C623.3 324 605.3 324 587.3 324C569.3 324 551.3 324 533.3 324C516.5 324 498.5 324 480.5 324C462.5 324 444.5 324 427.7 324C409.7 324 391.7 324 373.7 324C355.7 324 337.7 324 320.9 324C302.9 324 284.9 324 266.9 324C248.9 324 232.1 324 214.1 324C196.1 324 178.1 324 160.1 324C143.3 324 125.3 324 107.3 324C89.3 324 71.3 324 53.3 324C36.5 324 18.5 324 8.9 324H0.5V0Z" stroke="black"/>
</g>
<defs>
<filter id="filter0_i_34_739" x="0.5" y="0" width="1440" height="328" filterUnits="userSpaceOnUse" color-interpolation-filters="sRGB">
<feFlood flood-opacity="0" result="BackgroundImageFix"/>
<feBlend mode="normal" in="SourceGraphic" in2="BackgroundImageFix" result="shape"/>
<feColorMatrix in="SourceAlpha" type="matrix" values="0 0 0 0 0 0 0 0 0 0 0 0 0 0 0 0 0 0 127 0" result="hardAlpha"/>
<feOffset dy="4"/>
<feGaussianBlur stdDeviation="2"/>
<feComposite in2="hardAlpha" operator="arithmetic" k2="-1" k3="1"/>
<feColorMatrix type="matrix" values="0 0 0 0 0 0 0 0 0 0 0 0 0 0 0 0 0 0 0.25 0"/>
<feBlend mode="normal" in2="shape" result="effect1_innerShadow_34_739"/>
</filter>
<linearGradient id="paint0_linear_34_739" x1="0.5" y1="21.5" x2="1421" y2="324" gradientUnits="userSpaceOnUse">
<stop offset="0.517848" stop-color="#5B86E5"/>
<stop offset="1" stop-color="#305AB9"/>
</linearGradient>
</defs>
</svg>
