<svg width="65" height="65" viewBox="0 0 65 65" fill="none" xmlns="http://www.w3.org/2000/svg">
<path d="M18.3014 53.6387C14.2481 53.6387 10.7903 52.2432 7.9281 49.452C5.06588 46.6432 3.63477 43.2209 3.63477 39.1854C3.63477 35.7187 4.67477 32.6254 6.75477 29.9054C8.85254 27.1854 11.5903 25.452 14.9681 24.7054C16.0881 20.6165 18.3103 17.3098 21.6348 14.7854C24.977 12.2432 28.7548 10.972 32.9681 10.972C38.177 10.972 42.5859 12.7854 46.1948 16.412C49.8214 20.0209 51.6348 24.4298 51.6348 29.6387C54.7103 29.9943 57.2525 31.3276 59.2614 33.6387C61.2881 35.9143 62.3014 38.5809 62.3014 41.6387C62.3014 44.9809 61.137 47.8165 58.8081 50.1454C56.4792 52.4743 53.6437 53.6387 50.3014 53.6387H35.6348C34.177 53.6387 32.9237 53.1143 31.8748 52.0654C30.8259 51.0343 30.3014 49.7809 30.3014 48.3054V34.572L26.0348 38.7054L22.3014 34.972L32.9681 24.3054L43.6348 34.972L39.9014 38.7054L35.6348 34.572V48.3054H50.3014C52.1681 48.3054 53.7414 47.6565 55.0214 46.3587C56.3192 45.0787 56.9681 43.5054 56.9681 41.6387C56.9681 39.772 56.3192 38.1987 55.0214 36.9187C53.7414 35.6209 52.1681 34.972 50.3014 34.972H46.3014V29.6387C46.3014 25.9587 45.0037 22.812 42.4081 20.1987C39.8125 17.6032 36.6659 16.3054 32.9681 16.3054C29.2881 16.3054 26.1414 17.6032 23.5281 20.1987C20.9325 22.812 19.6348 25.9587 19.6348 29.6387H18.3014C15.7237 29.6387 13.5281 30.5543 11.7148 32.3854C9.88366 34.1987 8.9681 36.3943 8.9681 38.972C8.9681 41.5498 9.88366 43.772 11.7148 45.6387C13.5281 47.4165 15.7237 48.3054 18.3014 48.3054H24.9681V53.6387" fill="#2D3748"/>
</svg>
