<svg width="96" height="96" viewBox="0 0 96 96" fill="none" xmlns="http://www.w3.org/2000/svg">
<path d="M48.75 21C52.3304 21 55.7642 22.4223 58.2959 24.9541C60.8277 27.4858 62.25 30.9196 62.25 34.5C62.25 38.0804 60.8277 41.5142 58.2959 44.0459C55.7642 46.5777 52.3304 48 48.75 48C45.1696 48 41.7358 46.5777 39.2041 44.0459C36.6723 41.5142 35.25 38.0804 35.25 34.5C35.25 30.9196 36.6723 27.4858 39.2041 24.9541C41.7358 22.4223 45.1696 21 48.75 21ZM48.75 54.75C63.6675 54.75 75.75 60.7912 75.75 68.25V75H21.75V68.25C21.75 60.7912 33.8325 54.75 48.75 54.75Z" fill="#919191"/>
<circle cx="48" cy="48" r="47.5" stroke="#919191"/>
</svg>
